<?xml version="1.0" encoding="utf-8"?><!DOCTYPE svg PUBLIC "-//W3C//DTD SVG 1.1//EN" "http://www.w3.org/Graphics/SVG/1.1/DTD/svg11.dtd"><svg version="1.1" id="Ebene_1" xmlns="http://www.w3.org/2000/svg" xmlns:xlink="http://www.w3.org/1999/xlink" x="0px" y="0px" viewBox="0 0 512 512" enable-background="new 0 0 512 512" xml:space="preserve"><g><path fill="#C6D035" d="M169.3,254.8c-0.5-8,0.8-15.2,2.7-22.2c1.4-5.3,4.5-9.9,7.7-14.2c4.6-6.5,9-13.1,14.1-19.2 c2.5-2.9,5-5.4,8.6-7.1c5.6-2.8,11.3-5,17.4-6.6c1.9-0.5,3.9-0.5,5.8-0.4c8.9,0.4,17.8-0.3,26.6-1.3c5.9-0.7,11.7,0,17.4,1.4 c8,1.9,16.3,2,24.4,3.5c4.3,0.8,8.3,2.2,12.1,4.1c5.4,2.7,10.6,5.6,15.7,8.8c3.6,2.3,5.7,6.3,8.5,9.5c9.7,11.1,11.3,24.8,12.3,38.6 c0.3,3.7,0.2,7.4,0.5,11c0.6,9.2-3,17.6-5.2,26.3c-1.4,5.5-3.5,10.8-5.7,16.1c-4.7,11.3-12.5,18.8-24.4,22.5 c-9,2.8-18.3,2.9-27.4,2.9c-4.7,0-9.6-0.7-14.4-0.9c-8.3-0.3-11.5-4.6-11.5-13c0-5.9,0.7-4.9-5-5.2c-7.1-0.3-13.7,1.6-20.3,4 c-2.1,0.8-2.7,2.6-3,4.6c-1.3,8-10.8,12-17.8,7.7c-7.4-4.5-13.7-10.2-18.8-17.2c-2.2-3-4.5-5.9-7-8.6c-6.1-6.3-8.7-14.1-10-22.4 C171.2,269.7,168,262.2,169.3,254.8z M247.3,210.9c2.3-5.2,5.9-9.2,11-11.9c2.7-1.5,5.1-3.4,6.8-6.4c1.1-2,0.2-2.2-1.1-2.3 c-3.5-0.5-7.1-1.2-10.7-0.5c-6,1.2-12.1,0.8-18.1,1.4c-5.9,0.5-11.8-0.6-17.7,1.2c-4.1,1.3-7.9,3.2-11.8,4.9 c-3,1.3-5.3,3.2-7.3,5.8c-4.2,5.5-8,11.4-12.3,16.9c-7.2,9.2-10.3,19.4-10.9,30.9c-0.5,10.7,2.4,20.7,4.4,30.9 c0.9,4.8,3,9.3,6.5,13c3.1,3.2,6,6.5,8.5,10.2c3.8,5.5,8.7,9.8,13.9,13.8c5.6,4.3,10.5,2.5,11.8-4.2c0.1-0.5,0.3-1,0.5-1.4 c1.4-3.4,4.4-4.3,7.5-5.6c8.9-3.8,18.2-4.2,27.6-4.2c2.1,0,3.2,1.1,3.4,3.2c0.3,2.8,0.8,5.5,0.6,8.3c-0.1,1.7,0.2,3.3,1.3,4.6 c1,1.2,5.6,2.8,6.4,2c1.7-1.8-0.2-3.2-0.9-4.6c-2.6-5.3-3.9-11-1.5-16.3c5.1-11.5,15.5-16.5,27.1-15c10.5,1.4,14.4,5.7,13.9,15.3 c-0.2,5.5-10,10.8-13.8,7.9c-1.4-1.1-2.3-2-1.8-3.8c0.5-1.8,1.9-2.3,3.6-2c1.3,0.2,2.4,0.3,3.6-0.4c1.9-1.1,2.6-2.8,2.4-4.9 c-0.4-3-2.5-4.4-5-5.2c-4.1-1.3-8.2-1.1-12.4,0c-6.7,1.8-12.9,9.3-12.3,15.6c0.4,4.7,3.1,8.4,5.3,12.3c1.1,1.9,3.6,2.9,6,2.6 c8.3-1.2,16.7-0.4,24.9-3.4c6-2.2,11.2-5.2,15-10.3c2.7-3.6,2.5-3.6-1.3-5.9c-1.6-1-4.2-2.2-2.9-4.3c1.3-2.3,3.2,0,4.6,0.8 c3.5,2,3.9,2.2,4.9-0.6c0.4-1.1,1.2-3,1.8-4.1c2-4,2-4-2.1-5.6c-0.3-0.1-0.6-0.2-0.8-0.4c-1.2-0.7-3.1-1.2-2.3-3.1 c0.7-1.6,2.1-1.1,3.4-0.5c4.4,1.9,4.4,1.8,6.1-2.5c0.7-1.7,1.1-3.5,1.5-5.3c0.4-2,0.1-4-0.5-5.7c-0.4-1.4-2.6-0.3-4-0.6 c-0.2,0-0.4,0-0.6-0.1c-1-0.3-1.6-1-1.5-2.1c0.1-1.1,0.7-1.6,1.9-1.6c1.1,0,2.3-0.2,3.4,0c3.1,0.7,3.8-0.8,3.8-3.6 c-0.2-10.3-0.4-20.7-2.9-30.8c-2.8-10.9-7.2-20.8-16.8-27.7c-4.2-3-9.2-4.3-13.6-6.8c-8.4-4.8-17.6-5.6-27.1-5.2 c-0.9,0-1.8,0.2-2.7,0.7c-7.4,3.5-13.2,9.2-18.6,15.2c-1.5,1.7-2,3.6-2.4,5.8c-0.9,5.6-0.7,11.3,0.3,16.8c0.7,4.1,1.1,8.5,4.6,11.4 c4.1,3.4,8.5,6,14.3,4.6c1.9-0.5,3.6-1.3,5.5-1.8c1.8-0.5,3.4-0.3,4,1.5c0.5,1.3-0.1,2.8-1.4,3.6c-11.4,6.7-27.2,0.9-31.1-9.7 c-2.4-9.3-4.1-18.8-2.4-28.5c0.1-0.3,0.3-0.7,0.4-1C247.3,211.8,247.4,211.4,247.3,210.9z"/><path fill="#C6D035" d="M246.8,212.6c0.2-0.6,0.3-1.1,0.5-1.7C247.4,211.5,247.3,212.1,246.8,212.6z"/><path fill="#C6D035" d="M304.2,253c-2.7,0-4.8-2.1-4.8-4.8c0-2.3,1.8-4.3,4.1-4.6c3-0.3,5.5,2.1,5.4,4.9 C308.9,251.1,307,253,304.2,253z"/></g></svg>