<?xml version="1.0" encoding="utf-8"?>
<!-- Generator: Adobe Illustrator 17.1.0, SVG Export Plug-In . SVG Version: 6.00 Build 0)  -->
<!DOCTYPE svg PUBLIC "-//W3C//DTD SVG 1.1//EN" "http://www.w3.org/Graphics/SVG/1.1/DTD/svg11.dtd">
<svg version="1.1" id="Ebene_1" xmlns="http://www.w3.org/2000/svg" xmlns:xlink="http://www.w3.org/1999/xlink" x="0px" y="0px"
	 viewBox="0 0 50 50" enable-background="new 0 0 50 50" xml:space="preserve">
<g>
	<path fill="#C6D035" d="M16.7,24.9c-0.1-0.8,0.1-1.4,0.3-2.1c0.1-0.5,0.4-0.9,0.7-1.4c0.4-0.6,0.9-1.3,1.3-1.8
		c0.2-0.3,0.5-0.5,0.8-0.7c0.5-0.3,1.1-0.5,1.7-0.6c0.2,0,0.4,0,0.6,0c0.8,0,1.7,0,2.5-0.1c0.6-0.1,1.1,0,1.7,0.1
		c0.8,0.2,1.6,0.2,2.3,0.3c0.4,0.1,0.8,0.2,1.2,0.4c0.5,0.3,1,0.5,1.5,0.8c0.3,0.2,0.5,0.6,0.8,0.9c0.9,1.1,1.1,2.4,1.2,3.7
		c0,0.3,0,0.7,0,1.1c0.1,0.9-0.3,1.7-0.5,2.5c-0.1,0.5-0.3,1-0.5,1.5c-0.5,1.1-1.2,1.8-2.3,2.1c-0.9,0.3-1.7,0.3-2.6,0.3
		c-0.4,0-0.9-0.1-1.4-0.1c-0.8,0-1.1-0.4-1.1-1.2c0-0.6,0.1-0.5-0.5-0.5c-0.7,0-1.3,0.2-1.9,0.4c-0.2,0.1-0.3,0.2-0.3,0.4
		c-0.1,0.8-1,1.1-1.7,0.7c-0.7-0.4-1.3-1-1.8-1.6c-0.2-0.3-0.4-0.6-0.7-0.8c-0.6-0.6-0.8-1.3-1-2.1C16.9,26.3,16.6,25.6,16.7,24.9z
		 M24.2,20.7c0.2-0.5,0.6-0.9,1-1.1c0.3-0.1,0.5-0.3,0.6-0.6c0.1-0.2,0-0.2-0.1-0.2c-0.3,0-0.7-0.1-1,0c-0.6,0.1-1.1,0.1-1.7,0.1
		c-0.6,0.1-1.1-0.1-1.7,0.1c-0.4,0.1-0.8,0.3-1.1,0.5c-0.3,0.1-0.5,0.3-0.7,0.6c-0.4,0.5-0.8,1.1-1.2,1.6c-0.7,0.9-1,1.9-1,2.9
		c-0.1,1,0.2,2,0.4,2.9c0.1,0.5,0.3,0.9,0.6,1.2c0.3,0.3,0.6,0.6,0.8,1c0.4,0.5,0.8,0.9,1.3,1.3c0.5,0.4,1,0.2,1.1-0.4
		c0,0,0-0.1,0-0.1c0.1-0.3,0.4-0.4,0.7-0.5c0.8-0.4,1.7-0.4,2.6-0.4c0.2,0,0.3,0.1,0.3,0.3c0,0.3,0.1,0.5,0.1,0.8
		c0,0.2,0,0.3,0.1,0.4c0.1,0.1,0.5,0.3,0.6,0.2c0.2-0.2,0-0.3-0.1-0.4c-0.2-0.5-0.4-1-0.1-1.6c0.5-1.1,1.5-1.6,2.6-1.4
		c1,0.1,1.4,0.5,1.3,1.5c0,0.5-1,1-1.3,0.8c-0.1-0.1-0.2-0.2-0.2-0.4c0-0.2,0.2-0.2,0.3-0.2c0.1,0,0.2,0,0.3,0
		c0.2-0.1,0.2-0.3,0.2-0.5c0-0.3-0.2-0.4-0.5-0.5c-0.4-0.1-0.8-0.1-1.2,0c-0.6,0.2-1.2,0.9-1.2,1.5c0,0.4,0.3,0.8,0.5,1.2
		c0.1,0.2,0.3,0.3,0.6,0.2c0.8-0.1,1.6,0,2.4-0.3c0.6-0.2,1.1-0.5,1.4-1c0.3-0.3,0.2-0.3-0.1-0.6c-0.2-0.1-0.4-0.2-0.3-0.4
		c0.1-0.2,0.3,0,0.4,0.1c0.3,0.2,0.4,0.2,0.5-0.1c0-0.1,0.1-0.3,0.2-0.4c0.2-0.4,0.2-0.4-0.2-0.5c0,0-0.1,0-0.1,0
		c-0.1-0.1-0.3-0.1-0.2-0.3c0.1-0.2,0.2-0.1,0.3-0.1c0.4,0.2,0.4,0.2,0.6-0.2c0.1-0.2,0.1-0.3,0.1-0.5c0-0.2,0-0.4,0-0.5
		c0-0.1-0.2,0-0.4-0.1c0,0,0,0-0.1,0c-0.1,0-0.1-0.1-0.1-0.2c0-0.1,0.1-0.2,0.2-0.2c0.1,0,0.2,0,0.3,0c0.3,0.1,0.4-0.1,0.4-0.3
		c0-1,0-2-0.3-2.9c-0.3-1-0.7-2-1.6-2.6c-0.4-0.3-0.9-0.4-1.3-0.7C28.7,19.1,27.9,19,27,19c-0.1,0-0.2,0-0.3,0.1
		c-0.7,0.3-1.3,0.9-1.8,1.5c-0.1,0.2-0.2,0.3-0.2,0.6c-0.1,0.5-0.1,1.1,0,1.6c0.1,0.4,0.1,0.8,0.4,1.1c0.4,0.3,0.8,0.6,1.4,0.4
		c0.2,0,0.3-0.1,0.5-0.2c0.2,0,0.3,0,0.4,0.1c0,0.1,0,0.3-0.1,0.3c-1.1,0.6-2.6,0.1-3-0.9c-0.2-0.9-0.4-1.8-0.2-2.7c0,0,0-0.1,0-0.1
		C24.2,20.8,24.2,20.8,24.2,20.7z"/>
	<path fill="#C6D035" d="M24.1,20.9c0-0.1,0-0.1,0-0.2C24.2,20.8,24.2,20.8,24.1,20.9z"/>
	<path fill="#C6D035" d="M29.6,24.7c-0.3,0-0.5-0.2-0.5-0.5c0-0.2,0.2-0.4,0.4-0.4c0.3,0,0.5,0.2,0.5,0.5
		C30,24.5,29.9,24.7,29.6,24.7z"/>
</g>
</svg>
